<svg xmlns="http://www.w3.org/2000/svg" width="698.716" height="163.239" viewBox="0 0 698.716 163.239">
  <g>
    <path d="M405.871,135.186c2.46-4.829,4.766-9.358,7.334-14.4,4.4,3.405,8,6.411,11.821,9.1,11.285,7.941,23.658,12.43,37.652,10.763a29.221,29.221,0,0,0,25.006-35.372c-1.727-7.656-7.341-12.067-13.99-14.921-13.235-5.683-26.753-10.7-40.012-16.331-13.592-5.768-23.376-14.82-24.814-30.628-1.64-18.041,7.693-33.475,24.89-39.172,24.44-8.1,47.264-4.64,68.929,11.034-3.379,4.239-6.238,7.827-9.541,11.973-2.981-2.671-5.44-4.925-7.953-7.119-8.842-7.72-18.979-12.1-30.877-11.439C435.9,9.7,424.811,23.2,428.59,41.268c1,4.774,5.05,9.838,9.127,12.807,5.388,3.924,12.1,6.126,18.39,8.687,8.977,3.653,18.187,6.739,27.133,10.463,17.366,7.229,24.456,17.942,24.038,35.62-.421,17.77-9.317,30.371-25.848,36.612C459.608,153.7,425.135,149.284,405.871,135.186Z" fill="#fff"/>
    <path d="M640.042,1.683h10.684s.073,66.067-.084,95.435c-.169,31.488-18.165,50.34-49.666,52.26a135.646,135.646,0,0,1-14.145.087c-32.308-1.412-51.1-20.969-51.213-53.4-.1-28.844.344-57.7-.249-86.528-.056-2.719-.025-7.832-.025-7.832l19.269-.027s-.206,92.325-.19,93.9c.371,37.346,28.616,55.49,63.023,40.38,15.863-6.967,22.182-20.221,22.373-36.613C640.162,69.983,640.042,5.415,640.042,1.683Z" fill="#fff"/>
    <path d="M263.937,1.673l18.777.069s.087,74.92.26,94.053c.337,37.3,28.714,55.289,63.08,40.105,13.575-6,20.353-16.979,21.756-31.252.843-8.579.681-102.97.681-102.97l10.725.043s.347,67.916-.271,98.833c-.538,26.871-16.066,44.346-42.809,47.808a110.339,110.339,0,0,1-33.525-.83c-22.961-4.2-37.721-21.99-38.486-45.353C263.62,86.732,263.937,1.673,263.937,1.673Z" fill="#fff"/>
    <rect x="679.383" y="1.683" width="19.333" height="146.142" fill="#fff"/>
    <g>
      <path d="M188.084,148.047h.921s0-.067,0-.152Z" fill="#fff"/>
      <path d="M168.427,85.163s.137,7.45.17,10.065c.186,14.525.125,21.608.07,36.144,4.551-.564,12.872-.952,20.356-5.088.024-18.559.063-40.923.087-41.206,0,0,53.561-80.513,55.27-83.288l-13.746-.128s-40.647,61.4-47.335,71.426c-2.152-2.985-3.689-4.994-5.1-7.089C165.052,46.425,136.139,1.715,135.546,1.7c-4.967-.086-15.627.128-22.3.128,2.676,4.152,36.522,54.527,51.56,77.873C166.307,82.043,168.427,85.163,168.427,85.163Z" fill="#fff"/>
    </g>
    <path d="M137.708,149.432c-19.8-4.339-31.726-22.515-38.635-42.993C94.392,92.563,80.19,80.261,71.09,78a45.944,45.944,0,0,0,7.784-2.079,14.238,14.238,0,0,0,1.58-.649c.526-.2,1.013-.405,1.5-.607.608-.284,1.175-.527,1.783-.851,13.409-6.4,20.215-18.837,19.647-35.73-.041-.972-.121-1.945-.2-2.958C101.843,18.884,93.539,7.946,78.751,4.057A78.23,78.23,0,0,0,60.077,1.829C42.252,1.505,2.187,1.829,0,1.788V148.072H18.351V79.326l11.518.089,1.169.008,11.079.085c.81.034,2.477.065,4.7.083l0,0a30.036,30.036,0,0,1,9.927,1.426l.006-.011C75.364,89.123,79.309,110.9,82.772,118.43c5.405,11.751,12.551,44.76,63.635,44.809,52.824.05,66.718-31.082,66.718-31.082C183.761,154.058,151.715,152.5,137.708,149.432Zm-74.755-81c-14.543.932-29.167.244-44.44.244V12.848c16.447,0,32.571-.608,48.613.242,7.251.366,14.341,6.563,16,13.694,1.9,8.385,1.256,16.568-.486,24.751A21.126,21.126,0,0,1,62.953,68.428Z" fill="#fff"/>
  </g>
</svg>
