<?xml version="1.0" standalone="no"?>
<!DOCTYPE svg PUBLIC "-//W3C//DTD SVG 20010904//EN"
 "http://www.w3.org/TR/2001/REC-SVG-20010904/DTD/svg10.dtd">
<svg version="1.0" xmlns="http://www.w3.org/2000/svg"
 width="2439.000000pt" height="523.000000pt" viewBox="0 0 2439.000000 523.000000"
 preserveAspectRatio="xMidYMid meet">

<g transform="translate(0.000000,523.000000) scale(0.100000,-0.100000)"
fill="#000000" stroke="none">
<path d="M19319 5210 c-213 -64 -523 -414 -714 -805 -185 -379 -304 -820 -362
-1335 -25 -225 -25 -875 0 -1080 76 -624 198 -1022 427 -1392 137 -220 348
-453 469 -517 105 -56 251 -54 317 2 42 37 45 108 7 189 -37 78 -122 220 -243
403 -237 360 -371 744 -430 1235 -18 149 -24 593 -11 831 34 633 132 1104 302
1459 80 167 127 246 290 495 190 292 209 328 209 399 0 67 -23 98 -86 115 -45
12 -136 13 -175 1z"/>
<path d="M23227 5206 c-57 -16 -83 -37 -98 -83 -32 -98 -4 -173 139 -374 352
-495 490 -894 554 -1599 19 -210 16 -801 -5 -990 -36 -322 -105 -644 -192
-900 -72 -208 -187 -424 -389 -725 -144 -215 -206 -325 -206 -362 0 -89 49
-133 160 -141 125 -8 233 50 400 218 428 428 682 1075 782 1985 21 190 17 822
-5 1005 -83 672 -248 1158 -525 1550 -37 52 -121 149 -187 216 -106 107 -130
126 -205 162 -97 47 -155 56 -223 38z"/>
<path d="M373 5055 c-79 -22 -123 -48 -176 -104 -52 -56 -81 -114 -102 -206
-62 -269 -81 -877 -62 -1975 14 -869 14 -932 -9 -1311 -24 -402 -16 -478 57
-530 44 -31 128 -45 179 -30 57 17 168 127 209 208 96 191 122 426 186 1638
34 644 73 990 121 1063 21 33 42 17 102 -75 100 -156 219 -409 597 -1263 108
-245 237 -527 285 -627 78 -158 97 -190 156 -253 95 -100 145 -125 254 -125
68 0 93 5 125 22 125 66 212 232 450 858 341 896 554 1371 653 1459 30 27 48
9 72 -73 58 -193 107 -522 265 -1761 52 -405 84 -623 101 -683 34 -124 87
-228 141 -278 l45 -41 73 4 c85 4 117 22 152 84 35 61 36 119 14 430 -39 521
-50 705 -61 984 -6 151 -17 403 -25 560 -8 157 -19 535 -25 840 -14 803 -14
804 -40 885 -44 141 -118 232 -225 281 -50 23 -74 28 -140 28 -225 -1 -365
-144 -662 -679 -101 -181 -237 -441 -572 -1094 -167 -324 -309 -585 -347 -636
-11 -15 -18 -17 -32 -9 -37 23 -195 306 -560 1005 -210 403 -389 732 -473 874
-128 215 -280 398 -392 474 -100 68 -217 87 -334 56z"/>
<path d="M6914 5039 c-174 -22 -241 -128 -232 -362 5 -148 28 -199 102 -236
46 -23 61 -25 205 -25 142 -1 160 1 206 22 60 28 100 64 128 117 20 36 22 55
22 195 -1 140 -3 159 -23 197 -31 58 -56 72 -164 88 -101 16 -150 17 -244 4z"/>
<path d="M14765 4792 c-97 -63 -144 -180 -195 -489 -17 -103 -39 -206 -49
-228 -19 -42 -68 -84 -165 -140 -69 -39 -136 -103 -157 -150 -13 -27 -19 -64
-19 -116 0 -98 28 -157 109 -227 160 -140 194 -305 211 -1032 9 -422 24 -585
70 -765 102 -406 307 -597 684 -637 318 -33 533 82 513 276 -11 113 -56 151
-257 215 -303 98 -387 220 -409 595 -9 155 1 561 18 726 24 226 73 421 124
499 42 64 162 132 327 186 126 41 180 82 199 151 26 96 -50 171 -248 244 -102
37 -209 91 -250 126 -62 52 -86 127 -126 385 -40 261 -65 323 -147 369 -60 33
-189 40 -233 12z"/>
<path d="M22165 4021 c-116 -54 -180 -203 -301 -706 -122 -507 -198 -759 -289
-968 -111 -254 -225 -404 -311 -410 -25 -2 -35 7 -76 68 -92 137 -174 367
-279 790 -126 502 -216 793 -291 937 -54 104 -136 182 -208 197 -111 24 -259
-22 -297 -92 -54 -97 12 -406 191 -900 214 -590 333 -837 616 -1282 233 -367
270 -442 277 -555 8 -132 -43 -283 -140 -413 -53 -69 -114 -118 -321 -255
-166 -109 -285 -212 -306 -262 -25 -59 7 -124 73 -149 42 -16 223 -13 292 4
90 22 268 115 370 192 166 125 309 282 438 479 266 405 431 912 712 2179 137
621 195 911 195 982 -1 81 -27 136 -79 162 -55 29 -207 29 -266 2z"/>
<path d="M10700 3919 c-410 -53 -717 -264 -817 -563 -25 -74 -27 -94 -27 -236
0 -144 2 -161 28 -235 41 -120 81 -181 175 -275 126 -125 271 -200 641 -335
430 -157 557 -231 621 -363 33 -68 33 -188 0 -256 -32 -64 -82 -113 -156 -153
-105 -55 -170 -68 -350 -67 -190 1 -265 15 -525 99 -200 65 -277 76 -345 51
-106 -41 -156 -175 -105 -282 67 -137 353 -277 675 -330 153 -25 483 -25 610
-1 251 49 454 153 608 312 131 135 187 272 194 481 7 165 -11 265 -69 383 -50
101 -155 214 -266 286 -102 65 -294 155 -447 210 -420 148 -532 198 -613 270
-107 96 -138 237 -79 358 67 135 241 217 467 217 127 0 238 -16 470 -68 151
-34 184 -38 230 -31 88 14 133 59 150 148 15 79 1 118 -63 178 -93 89 -290
168 -489 197 -114 17 -403 20 -518 5z"/>
<path d="M6752 3819 c-29 -15 -50 -35 -64 -63 l-22 -41 3 -1015 c2 -1013 10
-1389 31 -1486 17 -78 66 -153 124 -189 49 -29 52 -30 180 -30 277 1 360 74
373 325 4 92 -3 160 -57 550 l-63 445 -7 650 c-5 406 -12 671 -19 705 -13 64
-50 115 -107 144 -33 18 -60 21 -184 24 -132 2 -149 1 -188 -19z"/>
</g>
</svg>
